
<svg class="home__blob"  viewBox="0 0 200 200" xmlns="http://www.w3.org/2000/svg">
  <path fill="#FF0066" d="M37.9,-59.3C50,-51.2,61.3,-42.2,65.3,-30.6C69.3,-19.1,66,-5,60.5,6.2C55.1,17.5,47.5,26,39.8,34C32.1,41.9,24.4,49.2,13.9,56.2C3.5,63.3,-9.5,70.1,-20.8,68.1C-32.1,66,-41.6,55.1,-51.2,44.2C-60.8,33.3,-70.4,22.4,-73.2,9.9C-76,-2.6,-71.9,-16.8,-67,-31.8C-62,-46.8,-56.2,-62.6,-44.9,-71.1C-33.6,-79.5,-16.8,-80.6,-2,-77.5C12.9,-74.5,25.8,-67.3,37.9,-59.3Z" transform="translate(100 100)" />
</svg>